<svg width="16" height="20" viewBox="0 0 16 20" fill="none" xmlns="http://www.w3.org/2000/svg">
<path fill-rule="evenodd" clip-rule="evenodd" d="M0.25 5C0.25 2.37665 2.37665 0.25 5 0.25H11C13.6234 0.25 15.75 2.37665 15.75 5V18.1683C15.75 19.5529 14.2183 20.3891 13.0537 19.6404L8.67595 16.8261C8.26419 16.5614 7.73581 16.5614 7.32405 16.8261L2.94633 19.6404C1.78168 20.3891 0.25 19.5529 0.25 18.1683V5ZM5 5.75C4.58579 5.75 4.25 6.08579 4.25 6.5C4.25 6.91421 4.58579 7.25 5 7.25H11C11.4142 7.25 11.75 6.91421 11.75 6.5C11.75 6.08579 11.4142 5.75 11 5.75H5Z" fill="#D52D2D"/>
</svg>
