<svg width="116" height="36" viewBox="0 0 116 36" fill="none" xmlns="http://www.w3.org/2000/svg">
<path d="M31.016 14.648C31.448 14.008 32.04 13.488 32.792 13.088C33.56 12.688 34.432 12.488 35.408 12.488C36.544 12.488 37.568 12.768 38.48 13.328C39.408 13.888 40.136 14.688 40.664 15.728C41.208 16.752 41.48 17.944 41.48 19.304C41.48 20.664 41.208 21.872 40.664 22.928C40.136 23.968 39.408 24.776 38.48 25.352C37.568 25.928 36.544 26.216 35.408 26.216C34.416 26.216 33.544 26.024 32.792 25.64C32.056 25.24 31.464 24.728 31.016 24.104V26H27.656V8.24H31.016V14.648ZM38.048 19.304C38.048 18.504 37.88 17.816 37.544 17.24C37.224 16.648 36.792 16.2 36.248 15.896C35.72 15.592 35.144 15.44 34.52 15.44C33.912 15.44 33.336 15.6 32.792 15.92C32.264 16.224 31.832 16.672 31.496 17.264C31.176 17.856 31.016 18.552 31.016 19.352C31.016 20.152 31.176 20.848 31.496 21.44C31.832 22.032 32.264 22.488 32.792 22.808C33.336 23.112 33.912 23.264 34.52 23.264C35.144 23.264 35.72 23.104 36.248 22.784C36.792 22.464 37.224 22.008 37.544 21.416C37.88 20.824 38.048 20.12 38.048 19.304ZM48.4816 26.216C47.3936 26.216 46.4176 26.024 45.5536 25.64C44.6896 25.24 44.0016 24.704 43.4896 24.032C42.9936 23.36 42.7216 22.616 42.6736 21.8H46.0576C46.1216 22.312 46.3696 22.736 46.8016 23.072C47.2496 23.408 47.8016 23.576 48.4576 23.576C49.0976 23.576 49.5936 23.448 49.9456 23.192C50.3136 22.936 50.4976 22.608 50.4976 22.208C50.4976 21.776 50.2736 21.456 49.8256 21.248C49.3936 21.024 48.6976 20.784 47.7376 20.528C46.7456 20.288 45.9296 20.04 45.2896 19.784C44.6656 19.528 44.1216 19.136 43.6576 18.608C43.2096 18.08 42.9856 17.368 42.9856 16.472C42.9856 15.736 43.1936 15.064 43.6096 14.456C44.0416 13.848 44.6496 13.368 45.4336 13.016C46.2336 12.664 47.1696 12.488 48.2416 12.488C49.8256 12.488 51.0896 12.888 52.0336 13.688C52.9776 14.472 53.4976 15.536 53.5936 16.88H50.3776C50.3296 16.352 50.1056 15.936 49.7056 15.632C49.3216 15.312 48.8016 15.152 48.1456 15.152C47.5376 15.152 47.0656 15.264 46.7296 15.488C46.4096 15.712 46.2496 16.024 46.2496 16.424C46.2496 16.872 46.4736 17.216 46.9216 17.456C47.3696 17.68 48.0656 17.912 49.0096 18.152C49.9696 18.392 50.7616 18.64 51.3856 18.896C52.0096 19.152 52.5456 19.552 52.9936 20.096C53.4576 20.624 53.6976 21.328 53.7136 22.208C53.7136 22.976 53.4976 23.664 53.0656 24.272C52.6496 24.88 52.0416 25.36 51.2416 25.712C50.4576 26.048 49.5376 26.216 48.4816 26.216ZM68.3038 19.064C68.3038 19.544 68.2718 19.976 68.2078 20.36H58.4878C58.5678 21.32 58.9038 22.072 59.4958 22.616C60.0878 23.16 60.8158 23.432 61.6798 23.432C62.9278 23.432 63.8158 22.896 64.3438 21.824H67.9678C67.5838 23.104 66.8478 24.16 65.7598 24.992C64.6718 25.808 63.3358 26.216 61.7518 26.216C60.4718 26.216 59.3198 25.936 58.2958 25.376C57.2878 24.8 56.4958 23.992 55.9198 22.952C55.3598 21.912 55.0798 20.712 55.0798 19.352C55.0798 17.976 55.3598 16.768 55.9198 15.728C56.4798 14.688 57.2638 13.888 58.2718 13.328C59.2798 12.768 60.4398 12.488 61.7518 12.488C63.0158 12.488 64.1438 12.76 65.1358 13.304C66.1438 13.848 66.9198 14.624 67.4638 15.632C68.0238 16.624 68.3038 17.768 68.3038 19.064ZM64.8238 18.104C64.8078 17.24 64.4958 16.552 63.8878 16.04C63.2798 15.512 62.5358 15.248 61.6558 15.248C60.8238 15.248 60.1198 15.504 59.5438 16.016C58.9838 16.512 58.6398 17.208 58.5118 18.104H64.8238ZM73.5883 14.768C74.0203 14.064 74.5803 13.512 75.2683 13.112C75.9723 12.712 76.7723 12.512 77.6683 12.512V16.04H76.7803C75.7243 16.04 74.9243 16.288 74.3803 16.784C73.8523 17.28 73.5883 18.144 73.5883 19.376V26H70.2283V12.704H73.5883V14.768ZM84.9474 22.904L88.3074 12.704H91.8834L86.9634 26H82.8834L77.9874 12.704H81.5874L84.9474 22.904ZM105.603 19.064C105.603 19.544 105.571 19.976 105.507 20.36H95.7866C95.8666 21.32 96.2026 22.072 96.7946 22.616C97.3866 23.16 98.1146 23.432 98.9786 23.432C100.227 23.432 101.115 22.896 101.643 21.824H105.267C104.883 23.104 104.147 24.16 103.059 24.992C101.971 25.808 100.635 26.216 99.0506 26.216C97.7706 26.216 96.6186 25.936 95.5946 25.376C94.5866 24.8 93.7946 23.992 93.2186 22.952C92.6586 21.912 92.3786 20.712 92.3786 19.352C92.3786 17.976 92.6586 16.768 93.2186 15.728C93.7786 14.688 94.5626 13.888 95.5706 13.328C96.5786 12.768 97.7386 12.488 99.0506 12.488C100.315 12.488 101.443 12.76 102.435 13.304C103.443 13.848 104.219 14.624 104.763 15.632C105.323 16.624 105.603 17.768 105.603 19.064ZM102.123 18.104C102.107 17.24 101.795 16.552 101.187 16.04C100.579 15.512 99.8346 15.248 98.9546 15.248C98.1226 15.248 97.4186 15.504 96.8426 16.016C96.2826 16.512 95.9386 17.208 95.8106 18.104H102.123ZM110.887 14.768C111.319 14.064 111.879 13.512 112.567 13.112C113.271 12.712 114.071 12.512 114.967 12.512V16.04H114.079C113.023 16.04 112.223 16.288 111.679 16.784C111.151 17.28 110.887 18.144 110.887 19.376V26H107.527V12.704H110.887V14.768Z" fill="#180202"/>
<path d="M25 18C25 24.9036 19.4036 30.5 12.5 30.5C5.59644 30.5 0 24.9036 0 18C0 11.0964 5.59644 5.5 12.5 5.5C19.4036 5.5 25 11.0964 25 18ZM6.22547 18C6.22547 21.4653 9.03467 24.2745 12.5 24.2745C15.9653 24.2745 18.7745 21.4653 18.7745 18C18.7745 14.5347 15.9653 11.7255 12.5 11.7255C9.03467 11.7255 6.22547 14.5347 6.22547 18Z" fill="url(#paint0_linear_109_1313)"/>
<path d="M19.4327 27.4868C18.1869 28.3972 16.774 29.0534 15.2746 29.4177C13.7752 29.7821 12.2187 29.8475 10.694 29.6104C9.1693 29.3732 7.70624 28.8381 6.38837 28.0355C5.07049 27.2329 3.9236 26.1786 3.01318 24.9327C2.10276 23.6869 1.44664 22.274 1.08228 20.7746C0.717921 19.2752 0.652455 17.7187 0.889624 16.194C1.12679 14.6693 1.66195 13.2062 2.46454 11.8884C3.26713 10.5705 4.32144 9.4236 5.56726 8.51318C6.81309 7.60276 8.22604 6.94664 9.72543 6.58228C11.2248 6.21792 12.7813 6.15246 14.306 6.38962C15.8307 6.62679 17.2938 7.16195 18.6116 7.96454C19.9295 8.76713 21.0764 9.82144 21.9868 11.0673C22.8972 12.3131 23.5534 13.726 23.9177 15.2254C24.2821 16.7248 24.3475 18.2813 24.1104 19.806C23.8732 21.3307 23.3381 22.7938 22.5355 24.1116C21.7329 25.4295 20.6786 26.5764 19.4327 27.4868L19.4327 27.4868Z" stroke="#180202" stroke-width="1.5"/>
<circle cx="12.4997" cy="17.9999" r="5.41667" fill="#180202"/>
<circle cx="12.5002" cy="18.0002" r="4.16667" fill="#D52D2D"/>
<circle cx="12.5" cy="18" r="3.75" fill="#C52B2B"/>
<circle cx="12.5" cy="18" r="2.5" fill="#6D1212"/>
<circle cx="8.125" cy="14.0415" r="1.875" fill="white"/>
<defs>
<linearGradient id="paint0_linear_109_1313" x1="13.125" y1="30.5" x2="12.5" y2="6.33333" gradientUnits="userSpaceOnUse">
<stop stop-color="#F1F1F1"/>
<stop offset="1" stop-color="#F1F1F1" stop-opacity="0.51"/>
</linearGradient>
</defs>
</svg>
