<svg width="232" height="72" viewBox="0 0 232 72" fill="none" xmlns="http://www.w3.org/2000/svg">
<path d="M62.032 30.296C62.896 29.016 64.08 27.976 65.584 27.176C67.12 26.376 68.864 25.976 70.816 25.976C73.088 25.976 75.136 26.536 76.96 27.656C78.816 28.776 80.272 30.376 81.328 32.456C82.416 34.504 82.96 36.888 82.96 39.608C82.96 42.328 82.416 44.744 81.328 46.856C80.272 48.936 78.816 50.552 76.96 51.704C75.136 52.856 73.088 53.432 70.816 53.432C68.832 53.432 67.088 53.048 65.584 52.28C64.112 51.48 62.928 50.456 62.032 49.208V53H55.312V17.48H62.032V30.296ZM76.096 39.608C76.096 38.008 75.76 36.632 75.088 35.48C74.448 34.296 73.584 33.4 72.496 32.792C71.44 32.184 70.288 31.88 69.04 31.88C67.824 31.88 66.672 32.2 65.584 32.84C64.528 33.448 63.664 34.344 62.992 35.528C62.352 36.712 62.032 38.104 62.032 39.704C62.032 41.304 62.352 42.696 62.992 43.88C63.664 45.064 64.528 45.976 65.584 46.616C66.672 47.224 67.824 47.528 69.04 47.528C70.288 47.528 71.44 47.208 72.496 46.568C73.584 45.928 74.448 45.016 75.088 43.832C75.76 42.648 76.096 41.24 76.096 39.608ZM96.9633 53.432C94.7873 53.432 92.8353 53.048 91.1073 52.28C89.3793 51.48 88.0033 50.408 86.9793 49.064C85.9873 47.72 85.4433 46.232 85.3473 44.6H92.1153C92.2433 45.624 92.7393 46.472 93.6033 47.144C94.4993 47.816 95.6033 48.152 96.9153 48.152C98.1953 48.152 99.1873 47.896 99.8913 47.384C100.627 46.872 100.995 46.216 100.995 45.416C100.995 44.552 100.547 43.912 99.6513 43.496C98.7873 43.048 97.3953 42.568 95.4753 42.056C93.4913 41.576 91.8593 41.08 90.5793 40.568C89.3313 40.056 88.2433 39.272 87.3153 38.216C86.4193 37.16 85.9713 35.736 85.9713 33.944C85.9713 32.472 86.3873 31.128 87.2193 29.912C88.0833 28.696 89.2993 27.736 90.8673 27.032C92.4673 26.328 94.3393 25.976 96.4833 25.976C99.6513 25.976 102.179 26.776 104.067 28.376C105.955 29.944 106.995 32.072 107.187 34.76H100.755C100.659 33.704 100.211 32.872 99.4113 32.264C98.6433 31.624 97.6033 31.304 96.2913 31.304C95.0753 31.304 94.1313 31.528 93.4593 31.976C92.8193 32.424 92.4993 33.048 92.4993 33.848C92.4993 34.744 92.9473 35.432 93.8433 35.912C94.7393 36.36 96.1313 36.824 98.0193 37.304C99.9393 37.784 101.523 38.28 102.771 38.792C104.019 39.304 105.091 40.104 105.987 41.192C106.915 42.248 107.395 43.656 107.427 45.416C107.427 46.952 106.995 48.328 106.131 49.544C105.299 50.76 104.083 51.72 102.483 52.424C100.915 53.096 99.0753 53.432 96.9633 53.432ZM136.608 39.128C136.608 40.088 136.544 40.952 136.416 41.72H116.976C117.136 43.64 117.808 45.144 118.992 46.232C120.176 47.32 121.632 47.864 123.36 47.864C125.856 47.864 127.632 46.792 128.688 44.648H135.936C135.168 47.208 133.696 49.32 131.52 50.984C129.344 52.616 126.672 53.432 123.504 53.432C120.944 53.432 118.64 52.872 116.592 51.752C114.576 50.6 112.992 48.984 111.84 46.904C110.72 44.824 110.16 42.424 110.16 39.704C110.16 36.952 110.72 34.536 111.84 32.456C112.96 30.376 114.528 28.776 116.544 27.656C118.56 26.536 120.88 25.976 123.504 25.976C126.032 25.976 128.288 26.52 130.272 27.608C132.288 28.696 133.84 30.248 134.928 32.264C136.048 34.248 136.608 36.536 136.608 39.128ZM129.648 37.208C129.616 35.48 128.992 34.104 127.776 33.08C126.56 32.024 125.072 31.496 123.312 31.496C121.648 31.496 120.24 32.008 119.088 33.032C117.968 34.024 117.28 35.416 117.024 37.208H129.648ZM147.177 30.536C148.041 29.128 149.161 28.024 150.537 27.224C151.945 26.424 153.545 26.024 155.337 26.024V33.08H153.561C151.449 33.08 149.849 33.576 148.761 34.568C147.705 35.56 147.177 37.288 147.177 39.752V53H140.457V26.408H147.177V30.536ZM169.895 46.808L176.615 26.408H183.767L173.927 53H165.767L155.975 26.408H163.175L169.895 46.808ZM211.205 39.128C211.205 40.088 211.141 40.952 211.013 41.72H191.573C191.733 43.64 192.405 45.144 193.589 46.232C194.773 47.32 196.229 47.864 197.957 47.864C200.453 47.864 202.229 46.792 203.285 44.648H210.533C209.765 47.208 208.293 49.32 206.117 50.984C203.941 52.616 201.269 53.432 198.101 53.432C195.541 53.432 193.237 52.872 191.189 51.752C189.173 50.6 187.589 48.984 186.437 46.904C185.317 44.824 184.757 42.424 184.757 39.704C184.757 36.952 185.317 34.536 186.437 32.456C187.557 30.376 189.125 28.776 191.141 27.656C193.157 26.536 195.477 25.976 198.101 25.976C200.629 25.976 202.885 26.52 204.869 27.608C206.885 28.696 208.437 30.248 209.525 32.264C210.645 34.248 211.205 36.536 211.205 39.128ZM204.245 37.208C204.213 35.48 203.589 34.104 202.373 33.08C201.157 32.024 199.669 31.496 197.909 31.496C196.245 31.496 194.837 32.008 193.685 33.032C192.565 34.024 191.877 35.416 191.621 37.208H204.245ZM221.774 30.536C222.638 29.128 223.758 28.024 225.134 27.224C226.542 26.424 228.142 26.024 229.934 26.024V33.08H228.158C226.046 33.08 224.446 33.576 223.358 34.568C222.302 35.56 221.774 37.288 221.774 39.752V53H215.054V26.408H221.774V30.536Z" fill="#180202"/>
<path d="M50 36C50 49.8071 38.8071 61 25 61C11.1929 61 0 49.8071 0 36C0 22.1929 11.1929 11 25 11C38.8071 11 50 22.1929 50 36ZM12.4509 36C12.4509 42.9307 18.0693 48.5491 25 48.5491C31.9307 48.5491 37.5491 42.9307 37.5491 36C37.5491 29.0693 31.9307 23.4509 25 23.4509C18.0693 23.4509 12.4509 29.0693 12.4509 36Z" fill="url(#paint0_linear_108_2868)"/>
<path d="M38.8655 54.9736C36.3738 56.7945 33.5479 58.1067 30.5491 58.8354C27.5503 59.5642 24.4374 59.6951 21.388 59.2208C18.3386 58.7464 15.4125 57.6761 12.7767 56.0709C10.141 54.4657 7.84721 52.3571 6.02637 49.8655C4.20553 47.3738 2.89329 44.5479 2.16456 41.5491C1.43584 38.5503 1.30491 35.4374 1.77925 32.388C2.25358 29.3386 3.3239 26.4125 4.92908 23.7767C6.53426 21.141 8.64287 18.8472 11.1345 17.0264C13.6262 15.2055 16.4521 13.8933 19.4509 13.1646C22.4497 12.4358 25.5626 12.3049 28.612 12.7792C31.6614 13.2536 34.5875 14.3239 37.2233 15.9291C39.859 17.5343 42.1528 19.6429 43.9736 22.1345C45.7945 24.6262 47.1067 27.4521 47.8354 30.4509C48.5642 33.4497 48.6951 36.5626 48.2208 39.612C47.7464 42.6614 46.6761 45.5875 45.0709 48.2233C43.4657 50.859 41.3571 53.1528 38.8655 54.9736L38.8655 54.9736Z" stroke="#180202" stroke-width="3"/>
<circle cx="24.9998" cy="35.9998" r="10.8333" fill="#180202"/>
<circle cx="25.0003" cy="36.0003" r="8.33333" fill="#D52D2D"/>
<circle cx="25" cy="35.9998" r="7.5" fill="#C52B2B"/>
<circle cx="25" cy="36.0002" r="5" fill="#6D1212"/>
<circle cx="16.25" cy="28.0828" r="3.75" fill="white"/>
<defs>
<linearGradient id="paint0_linear_108_2868" x1="26.25" y1="61" x2="25" y2="12.6667" gradientUnits="userSpaceOnUse">
<stop stop-color="#F1F1F1"/>
<stop offset="1" stop-color="#F1F1F1" stop-opacity="0.51"/>
</linearGradient>
</defs>
</svg>
