<svg width="245" height="60" viewBox="0 0 245 60" fill="none" xmlns="http://www.w3.org/2000/svg">
<g clip-path="url(#clip0_701_1853)">
<rect width="245" height="60" rx="12.5" fill="#D9D9D9"/>
<rect width="119" height="60" fill="#EFEFEF"/>
<path d="M22.52 16.08C25.4533 16.08 28.0267 16.6533 30.24 17.8C32.48 18.9467 34.2 20.5867 35.4 22.72C36.6267 24.8267 37.24 27.28 37.24 30.08C37.24 32.88 36.6267 35.3333 35.4 37.44C34.2 39.52 32.48 41.1333 30.24 42.28C28.0267 43.4267 25.4533 44 22.52 44H12.76V16.08H22.52ZM22.32 39.24C25.2533 39.24 27.52 38.44 29.12 36.84C30.72 35.24 31.52 32.9867 31.52 30.08C31.52 27.1733 30.72 24.9067 29.12 23.28C27.52 21.6267 25.2533 20.8 22.32 20.8H18.36V39.24H22.32ZM39.1119 32.84C39.1119 30.6 39.5519 28.6133 40.4319 26.88C41.3385 25.1467 42.5519 23.8133 44.0719 22.88C45.6185 21.9467 47.3385 21.48 49.2319 21.48C50.8852 21.48 52.3252 21.8133 53.5519 22.48C54.8052 23.1467 55.8052 23.9867 56.5519 25V21.84H62.1919V44H56.5519V40.76C55.8319 41.8 54.8319 42.6667 53.5519 43.36C52.2985 44.0267 50.8452 44.36 49.1919 44.36C47.3252 44.36 45.6185 43.88 44.0719 42.92C42.5519 41.96 41.3385 40.6133 40.4319 38.88C39.5519 37.12 39.1119 35.1067 39.1119 32.84ZM56.5519 32.92C56.5519 31.56 56.2852 30.4 55.7519 29.44C55.2185 28.4533 54.4985 27.7067 53.5919 27.2C52.6852 26.6667 51.7119 26.4 50.6719 26.4C49.6319 26.4 48.6719 26.6533 47.7919 27.16C46.9119 27.6667 46.1919 28.4133 45.6319 29.4C45.0985 30.36 44.8319 31.5067 44.8319 32.84C44.8319 34.1733 45.0985 35.3467 45.6319 36.36C46.1919 37.3467 46.9119 38.1067 47.7919 38.64C48.6985 39.1733 49.6585 39.44 50.6719 39.44C51.7119 39.44 52.6852 39.1867 53.5919 38.68C54.4985 38.1467 55.2185 37.4 55.7519 36.44C56.2852 35.4533 56.5519 34.28 56.5519 32.92ZM69.6213 19.2C68.6346 19.2 67.8079 18.8933 67.1413 18.28C66.5013 17.64 66.1813 16.8533 66.1813 15.92C66.1813 14.9867 66.5013 14.2133 67.1413 13.6C67.8079 12.96 68.6346 12.64 69.6213 12.64C70.6079 12.64 71.4213 12.96 72.0613 13.6C72.7279 14.2133 73.0613 14.9867 73.0613 15.92C73.0613 16.8533 72.7279 17.64 72.0613 18.28C71.4213 18.8933 70.6079 19.2 69.6213 19.2ZM72.3813 21.84V44H66.7813V21.84H72.3813ZM82.6341 14.4V44H77.0341V14.4H82.6341ZM108.487 21.84L94.7669 54.48H88.8069L93.6069 43.44L84.7269 21.84H91.0069L96.7269 37.32L102.527 21.84H108.487Z" fill="black"/>
<rect width="126" height="60" transform="translate(119)" fill="#A53434"/>
<path d="M154.84 44H150.28L136.56 23.24V44H132V16.16H136.56L150.28 36.88V16.16H154.84V44ZM180.148 32.44C180.148 33.2667 180.095 34.0133 179.988 34.68H163.148C163.281 36.44 163.935 37.8533 165.108 38.92C166.281 39.9867 167.721 40.52 169.428 40.52C171.881 40.52 173.615 39.4933 174.628 37.44H179.548C178.881 39.4667 177.668 41.1333 175.908 42.44C174.175 43.72 172.015 44.36 169.428 44.36C167.321 44.36 165.428 43.8933 163.748 42.96C162.095 42 160.788 40.6667 159.828 38.96C158.895 37.2267 158.428 35.2267 158.428 32.96C158.428 30.6933 158.881 28.7067 159.788 27C160.721 25.2667 162.015 23.9333 163.668 23C165.348 22.0667 167.268 21.6 169.428 21.6C171.508 21.6 173.361 22.0533 174.988 22.96C176.615 23.8667 177.881 25.1467 178.788 26.8C179.695 28.4267 180.148 30.3067 180.148 32.44ZM175.388 31C175.361 29.32 174.761 27.9733 173.588 26.96C172.415 25.9467 170.961 25.44 169.228 25.44C167.655 25.44 166.308 25.9467 165.188 26.96C164.068 27.9467 163.401 29.2933 163.188 31H175.388ZM213.356 21.96L206.516 44H201.716L197.276 27.72L192.836 44H188.036L181.156 21.96H185.796L190.396 39.68L195.076 21.96H199.836L204.316 39.6L208.876 21.96H213.356ZM223.883 44.36C222.15 44.36 220.59 44.0533 219.203 43.44C217.843 42.8 216.763 41.9467 215.963 40.88C215.163 39.7867 214.737 38.5733 214.683 37.24H219.403C219.483 38.1733 219.923 38.96 220.723 39.6C221.55 40.2133 222.577 40.52 223.803 40.52C225.083 40.52 226.07 40.28 226.763 39.8C227.483 39.2933 227.843 38.6533 227.843 37.88C227.843 37.0533 227.443 36.44 226.643 36.04C225.87 35.64 224.63 35.2 222.923 34.72C221.27 34.2667 219.923 33.8267 218.883 33.4C217.843 32.9733 216.937 32.32 216.163 31.44C215.417 30.56 215.043 29.4 215.043 27.96C215.043 26.7867 215.39 25.72 216.083 24.76C216.777 23.7733 217.763 23 219.043 22.44C220.35 21.88 221.843 21.6 223.523 21.6C226.03 21.6 228.043 22.24 229.563 23.52C231.11 24.7733 231.937 26.4933 232.043 28.68H227.483C227.403 27.6933 227.003 26.9067 226.283 26.32C225.563 25.7333 224.59 25.44 223.363 25.44C222.163 25.44 221.243 25.6667 220.603 26.12C219.963 26.5733 219.643 27.1733 219.643 27.92C219.643 28.5067 219.857 29 220.283 29.4C220.71 29.8 221.23 30.12 221.843 30.36C222.457 30.5733 223.363 30.8533 224.563 31.2C226.163 31.6267 227.47 32.0667 228.483 32.52C229.523 32.9467 230.417 33.5867 231.163 34.44C231.91 35.2933 232.297 36.4267 232.323 37.84C232.323 39.0933 231.977 40.2133 231.283 41.2C230.59 42.1867 229.603 42.96 228.323 43.52C227.07 44.08 225.59 44.36 223.883 44.36Z" fill="white"/>
</g>
<defs>
<clipPath id="clip0_701_1853">
<rect width="245" height="60" rx="12.5" fill="white"/>
</clipPath>
</defs>
</svg>
