<svg width="24" height="24" viewBox="0 0 24 24" fill="none" xmlns="http://www.w3.org/2000/svg">
<path fill-rule="evenodd" clip-rule="evenodd" d="M1.25 12C1.25 6.06294 6.06294 1.25 12 1.25C17.9371 1.25 22.75 6.06294 22.75 12C22.75 17.9371 17.9371 22.75 12 22.75C6.06294 22.75 1.25 17.9371 1.25 12ZM13.793 14.3135C14.0453 14.2429 14.2424 14.0458 14.313 13.7935L15.5505 9.37411C15.6235 9.1132 15.5502 8.83316 15.3586 8.64156C15.167 8.44997 14.887 8.37661 14.626 8.44967L10.2066 9.68711C9.95437 9.75774 9.75725 9.95486 9.68662 10.2071L8.44918 14.6265C8.37612 14.8874 8.44948 15.1675 8.64107 15.3591C8.83267 15.5507 9.11271 15.624 9.37363 15.551L13.793 14.3135Z" fill="#D52D2D"/>
</svg>
